<?xml version="1.0" encoding="UTF-8" standalone="no"?>
<!DOCTYPE svg PUBLIC "-//W3C//DTD SVG 1.1//EN" "http://www.w3.org/Graphics/SVG/1.1/DTD/svg11.dtd">
<svg version="1.1" xmlns="http://www.w3.org/2000/svg" xmlns:xlink="http://www.w3.org/1999/xlink" preserveAspectRatio="xMidYMid meet" viewBox="0 0 640 640" width="640" height="640"><defs><path d="M11.96 11.64L22.5 5.83L12.02 0L1.46 5.7L11.96 11.64Z" id="e6L8aaMibo"></path><path d="M0.96 18.14L11.64 23.95L11.64 12.2L0.96 6.52L0.96 18.14Z" id="b5CAAkMx5x"></path><path d="M12.27 23.75L12.27 12.27L22.89 6.45L23.02 18.02L12.27 23.75Z" id="b1HYtqOb2W"></path><path d="M8.97 20.47C8.97 22.66 7.19 24.44 5 24.44C2.81 24.44 1.03 22.66 1.03 20.47C1.03 18.28 2.81 16.5 5 16.5C7.19 16.5 8.97 18.28 8.97 20.47Z" id="b18ek0Cll"></path><mask id="maska5PL0mYBS" x="0.03" y="15.5" width="9.94" height="9.94" maskUnits="userSpaceOnUse"><rect x="0.03" y="15.5" width="9.94" height="9.94" fill="white"></rect><use xlink:href="#b18ek0Cll" opacity="1" fill="black"></use></mask><path d="M5 17.5C5.25 17.5 5.45 17.7 5.45 17.95C5.45 19.05 5.45 21.91 5.45 23.01C5.45 23.26 5.25 23.46 5 23.46C4.91 23.46 5.09 23.46 5 23.46C4.75 23.46 4.55 23.26 4.55 23.01C4.55 21.91 4.55 19.05 4.55 17.95C4.55 17.7 4.75 17.5 5 17.5C5.09 17.5 4.91 17.5 5 17.5Z" id="a1VqydnayK"></path><path d="M7.98 20.6C7.98 20.85 7.78 21.05 7.53 21.05C6.43 21.05 3.57 21.05 2.47 21.05C2.22 21.05 2.02 20.85 2.02 20.6C2.02 20.51 2.02 20.69 2.02 20.6C2.02 20.36 2.22 20.15 2.47 20.15C3.57 20.15 6.43 20.15 7.53 20.15C7.78 20.15 7.98 20.36 7.98 20.6C7.98 20.69 7.98 20.51 7.98 20.6Z" id="b9SRDlSJ8"></path></defs><g><g><g><use xlink:href="#e6L8aaMibo" opacity="1" fill="#888888" fill-opacity="1"></use></g><g><use xlink:href="#b5CAAkMx5x" opacity="1" fill="#888888" fill-opacity="1"></use></g><g><use xlink:href="#b1HYtqOb2W" opacity="1" fill="#888888" fill-opacity="1"></use></g><g><use xlink:href="#b18ek0Cll" opacity="1" fill="#888888" fill-opacity="1"></use><g mask="url(#maska5PL0mYBS)"><use xlink:href="#b18ek0Cll" opacity="1" fill-opacity="0" stroke="#ffffff" stroke-width="1" stroke-opacity="1"></use></g></g><g><use xlink:href="#a1VqydnayK" opacity="1" fill="#ffffff" fill-opacity="1"></use></g><g><use xlink:href="#b9SRDlSJ8" opacity="1" fill="#ffffff" fill-opacity="1"></use></g></g></g></svg>