<svg id="fec709b7-0651-4207-ba05-3b9f89781df1" data-name="Layer 1" xmlns="http://www.w3.org/2000/svg" width="1021.17474" height="798.75165" viewBox="0 0 1021.17474 798.75165"><title>at_the_park</title><path d="M214.78928,711.51922c-1.36408-2.0203-2.705-4.094-3.986-6.16422l2.069-1.28035c1.26372,2.044,2.58683,4.09047,3.93251,6.08345Z" transform="translate(-89.41263 -50.62418)" fill="#3f3d56"/><path d="M203.46921,692.31869c-2.25605-4.42779-4.353-9.00166-6.23191-13.59513l2.25071-.92167c1.85461,4.53171,3.923,9.04442,6.14878,13.41223Zm-11.31532-27.66c-1.49235-4.7354-2.80418-9.59314-3.89984-14.43722l2.373-.53684c1.08023,4.77934,2.37424,9.57116,3.8464,14.24243Zm-6.58941-29.14761c-.68947-4.90881-1.18356-9.91441-1.4698-14.879l2.42887-.14015c.28149,4.89871.76964,9.8378,1.4496,14.6807Zm.70847-29.77353-2.43125-.057c.117-4.97175.44-9.991.95967-14.91764l2.41937.25536C186.70765,595.87955,186.38875,600.83171,186.273,605.73755Zm3.09814-29.31091-2.38968-.45371c.92642-4.87793,2.0684-9.77664,3.39448-14.56014l2.34454.64967C191.41158,566.78183,190.285,571.61463,189.37109,576.42664Zm7.87808-28.40173-2.28159-.84208c1.71981-4.65939,3.65756-9.30572,5.75921-13.80952l2.20439,1.02856C200.85744,538.8451,198.94582,543.42847,197.24917,548.02491Zm333.1267-7.5188c-1.90152-4.50914-4.01743-8.9981-6.28952-13.34274l2.1557-1.12714c2.303,4.404,4.448,8.95415,6.375,13.52446ZM209.71954,521.29667,207.60779,520.09c2.46331-4.309,5.13863-8.57112,7.95172-12.66872l2.00486,1.37656C214.78928,512.84077,212.1496,517.04586,209.71954,521.29667Zm306.99707-6.91247c-2.6195-4.13739-5.44447-8.21837-8.39652-12.1289l1.9419-1.46564c2.99185,3.964,5.85482,8.10019,8.50936,12.2934ZM226.40984,496.98661l-1.88608-1.5369c3.13793-3.85,6.473-7.61619,9.91441-11.19536l1.75307,1.68537C232.79616,489.47137,229.505,493.18772,226.40984,496.98661Zm272.54752-6.13215c-3.26264-3.657-6.7165-7.22247-10.266-10.59794l1.67645-1.76256c3.597,3.4212,7.09776,7.03481,10.40434,10.74046ZM246.84322,475.73134l-1.60935-1.82313c3.72169-3.28521,7.62629-6.457,11.60512-9.42686l1.45495,1.949C254.368,469.36106,250.51562,472.49008,246.84322,475.73134Zm230.7496-5.19683c-3.81552-3.075-7.80563-6.02941-11.85869-8.78015L467.1,459.74119c4.10829,2.78875,8.15185,5.78237,12.019,8.89893Zm-207.12723-12.433-1.28985-2.06187c4.21162-2.63434,8.58121-5.12319,12.98821-7.39765l1.11526,2.16163C278.9316,453.04726,274.6208,455.50285,270.46559,458.10156Zm182.72869-4.12373c-4.27338-2.41165-8.694-4.67127-13.139-6.71591l1.01668-2.21033c4.50558,2.07315,8.98622,4.36365,13.3178,6.80736Zm-156.545-9.38885-.93354-2.246c4.584-1.9039,9.30215-3.63856,14.02389-5.15526l.74351,2.316C305.82552,440.99971,301.17088,442.71061,296.64927,444.589Zm129.7562-2.93424c-4.60357-1.67111-9.3366-3.17-14.06725-4.45451l.6378-2.34692c4.79479,1.30173,9.59255,2.82081,14.25966,4.51508Zm-101.70426-6.07455-.54872-2.36948c4.83042-1.12,9.77367-2.05177,14.69139-2.77034l.35156,2.4069C334.34364,433.55633,329.46749,434.47562,324.70121,435.58019Zm73.24909-1.6521c-4.80786-.886-9.722-1.58322-14.60588-2.07137l.2423-2.42056c4.94978.49528,9.931,1.20137,14.80422,2.09988Zm-44.08485-2.61-.15322-2.42768c4.94741-.31237,9.99162-.42342,14.94853-.33375l-.04395,2.43244C363.72166,430.89942,358.74812,431.01047,353.86545,431.31809Z" transform="translate(-89.41263 -50.62418)" fill="#3f3d56"/><path d="M537.70167,561.436c-.65146-2.31485-1.35933-4.64811-2.10462-6.93505l2.31247-.75419c.75538,2.31841,1.47336,4.68373,2.13313,7.03006Z" transform="translate(-89.41263 -50.62418)" fill="#3f3d56"/><path d="M583.68032,483.597h-2.43243c0-2.43422.04276-4.90406.12768-7.34006l2.43125.08433C583.72308,478.74991,583.68032,481.19065,583.68032,483.597Z" transform="translate(-89.41263 -50.62418)" fill="#3f3d56"/><path d="M584.83775,461.71458l-2.41937-.25774c.52141-4.89871,1.22631-9.83721,2.09572-14.67832l2.39442.42995C586.04921,451.99257,585.35262,456.87347,584.83775,461.71458Zm5.17842-28.82574-2.35642-.601c1.2174-4.774,2.62484-9.56048,4.18193-14.227l2.30772.76963C592.61013,423.44238,591.21991,428.17185,590.01617,432.88884ZM977.94383,407.226c-1.81838-4.5139-3.82442-9.0177-5.9623-13.38491l2.18538-1.06894c2.16283,4.41947,4.19262,8.97672,6.03357,13.54525Zm-378.65342-2.132-2.246-.93472c1.89143-4.54537,3.97408-9.083,6.19154-13.48705l2.17232,1.09388C603.21757,396.11851,601.15927,400.60211,599.29041,405.094Zm365.781-24.17644c-2.4455-4.20331-5.07509-8.374-7.81752-12.39554l2.00961-1.37062c2.77568,4.06969,5.43615,8.28963,7.91015,12.54282Zm-352.60278-2.00307-2.08859-1.2471c2.52092-4.2235,5.23186-8.41493,8.05624-12.4573l1.99417,1.39318C617.63875,370.59817,614.95987,374.74031,612.46865,378.91452Zm336.10072-22.19831c-3.02509-3.8179-6.22241-7.57166-9.50406-11.15736l1.79345-1.6426c3.32084,3.62845,6.55735,7.42616,9.61808,11.28919Zm-319.31837-1.822-1.88965-1.53215c3.1029-3.8268,6.38157-7.58828,9.74576-11.17992l1.77563,1.6628C635.55774,347.39505,632.31707,351.11259,629.251,354.89426Zm299.53943-19.78785c-3.53581-3.34816-7.23435-6.60961-10.99464-9.69469l1.54165-1.88015c3.80543,3.12071,7.5479,6.42136,11.12529,9.80871Zm-279.51463-1.5951-1.65329-1.78513c3.61183-3.344,7.39053-6.6013,11.23218-9.68043l1.52145,1.898C656.57963,326.98722,652.84487,330.20591,649.2758,333.51131Zm256.86261-16.986c-3.97408-2.81131-8.099-5.51336-12.26192-8.0313l1.259-2.08087c4.21162,2.54764,8.38643,5.28175,12.40683,8.12631ZM672.128,315.19265l-1.3825-2.00129c4.0495-2.79587,8.25222-5.48069,12.49234-7.98082l1.23522,2.09512C680.28277,309.77669,676.12934,312.43,672.128,315.19265Zm208.94264-13.83029c-4.33633-2.21508-8.80568-4.29833-13.28573-6.19332l.94779-2.24c4.5335,1.917,9.0563,4.02574,13.44489,6.267Zm-183.721-1.03747-1.082-2.17826c4.40641-2.18776,8.94821-4.24309,13.50011-6.10839l.92286,2.25071C706.19208,296.13227,701.70372,298.16326,697.34958,300.32489ZM854.087,289.94965c-4.6012-1.56659-9.32472-2.98591-14.03874-4.21816l.61523-2.35285c4.771,1.2465,9.55157,2.683,14.20739,4.268Zm-129.66-.71976-.75776-2.31128c4.67483-1.53215,9.46843-2.914,14.24837-4.1071l.58911,2.36C733.78319,286.35029,729.046,287.71556,724.427,289.22989Zm101.31766-6.69037c-4.78291-.88781-9.65965-1.61291-14.49482-2.15569l.27079-2.417c4.89337.54932,9.82831,1.28273,14.66823,2.18064Zm-72.90227-.40026-.41689-2.3968c4.84586-.84387,9.78733-1.52264,14.689-2.01851l.24467,2.42055C762.51569,280.63384,757.63123,281.3049,752.84239,282.13926Zm43.795-2.87069c-4.8708-.19776-9.82236-.22389-14.65635-.07958l-.07363-2.43124c4.89218-.14609,9.90075-.12056,14.82975.08076Z" transform="translate(-89.41263 -50.62418)" fill="#3f3d56"/><path d="M985.05941,428.09821c-.65087-2.31485-1.354-4.65167-2.088-6.94692l2.316-.74113c.74351,2.322,1.45494,4.6867,2.11412,7.02887Z" transform="translate(-89.41263 -50.62418)" fill="#3f3d56"/><polygon points="388.023 487.496 638.091 628.492 342.797 798.752 95.389 652.435 388.023 487.496" fill="#3f3d56"/><polygon points="771.106 277.332 1021.175 418.328 725.881 588.588 478.473 442.271 771.106 277.332" fill="#3f3d56"/><polygon points="388.023 474.195 638.091 615.191 342.797 785.45 95.389 639.133 388.023 474.195" fill="#d0cde1"/><polygon points="771.106 264.031 1021.175 405.027 725.881 575.286 478.473 428.97 771.106 264.031" fill="#d0cde1"/><path d="M918.65033,274.91823a76.72352,76.72352,0,0,0-30.0398-122.74448,54.46033,54.46033,0,1,0-54.54514,0A76.72038,76.72038,0,0,0,803.91371,274.789a106.44543,106.44543,0,1,0,114.73662.12925Z" transform="translate(-89.41263 -50.62418)" fill="#3f3d56"/><path d="M542.64953,518.00005c0,56.129-33.36324,75.72576-74.5254,75.72576-.95344,0-1.90684-.01373-2.85341-.03433-1.90689-.04115-3.8-.13028-5.66572-.26061-37.1495-2.62709-66.00622-23.2322-66.00622-75.43082,0-54.00946,69.01742-122.16948,74.21668-127.22472a.00672.00672,0,0,1,.00686-.00686c.199-.19891.30181-.29495.30181-.29495S542.64953,461.87794,542.64953,518.00005Z" transform="translate(-89.41263 -50.62418)" fill="#d0cde1"/><path d="M465.40791,585.13806l27.25852-38.08238-27.32714,42.26649-.06857,4.36931c-1.90689-.04115-3.8-.13028-5.66572-.26061l2.93572-56.14957-.02056-.439.048-.07548.28121-5.309-27.39567-42.36939,27.478,38.39105.06862,1.12493,2.21551-42.42428L441.76417,442.3978l23.73974,36.34011,2.31155-87.96258.00686-.30181v.29495l-.38411,69.36038,23.3488-27.49861-23.44484,33.473-.6173,37.98635,21.80543-36.45675-21.89461,42.047-.343,21.11955,31.64157-50.7445-31.765,58.11129Z" transform="translate(-89.41263 -50.62418)" fill="#3f3d56"/><path d="M313.86345,619.09157c0,56.129-33.36323,75.72576-74.52539,75.72576-.95344,0-1.90684-.01373-2.85342-.03433-1.90688-.04115-3.8-.13028-5.66572-.26061-37.14949-2.62709-66.00622-23.2322-66.00622-75.43082,0-54.00945,69.01743-122.16948,74.21668-127.22472a.00673.00673,0,0,1,.00687-.00686c.19894-.19891.30181-.29494.30181-.29494S313.86345,562.96947,313.86345,619.09157Z" transform="translate(-89.41263 -50.62418)" fill="#d0cde1"/><path d="M236.62183,686.22958l27.25852-38.08238-27.32713,42.26649-.06858,4.36931c-1.90688-.04115-3.8-.13028-5.66572-.26061l2.93573-56.14957-.02056-.439.048-.07548.28121-5.309L206.66765,590.18l27.478,38.39106.06861,1.12492,2.21552-42.42428L212.9781,543.48932l23.73973,36.34011,2.31155-87.96258.00687-.3018V491.86l-.38411,69.36038,23.34879-27.49861-23.44483,33.473-.61731,37.98634,21.80543-36.45675-21.8946,42.047-.343,21.11955,31.64156-50.7445-31.765,58.1113Z" transform="translate(-89.41263 -50.62418)" fill="#3f3d56"/><path d="M684.89878,447.21854a37.94766,37.94766,0,1,0,37.94765,37.94765A37.94765,37.94765,0,0,0,684.89878,447.21854Zm2.31388,41.18709a7.40442,7.40442,0,1,1,7.40442-7.40442A7.40443,7.40443,0,0,1,687.21266,488.40563Z" transform="translate(-89.41263 -50.62418)" fill="#f2f2f2"/><path d="M725.12847,420.282c-.83707.91152-16.23688,15.56328-16.23688,15.56328s1.53034,10.22645,18.00718,11.49554l27.4614,2.11516s5.19056,19.04838,11.362,25.13573,3.33927,6.42692,5.65532,9.39388-.93464,3.7623,2.58116,4.05053,10.77979-3.96257,10.85875-7.25049a7.6701,7.6701,0,0,0-2.88351-6.00839c-.91152-.83707-3.22308-8.84055-4.609-10.5333s-6.63232-22.05257-6.63232-22.05257-5.23678-9.84965-12.49627-10.63537S742.86,427.2393,742.86,427.2393" transform="translate(-89.41263 -50.62418)" fill="#2f2e41"/><path d="M725.12847,420.282c-.83707.91152-16.23688,15.56328-16.23688,15.56328s1.53034,10.22645,18.00718,11.49554l27.4614,2.11516s5.19056,19.04838,11.362,25.13573,3.33927,6.42692,5.65532,9.39388-.93464,3.7623,2.58116,4.05053,10.77979-3.96257,10.85875-7.25049a7.6701,7.6701,0,0,0-2.88351-6.00839c-.91152-.83707-3.22308-8.84055-4.609-10.5333s-6.63232-22.05257-6.63232-22.05257-5.23678-9.84965-12.49627-10.63537S742.86,427.2393,742.86,427.2393" transform="translate(-89.41263 -50.62418)" opacity="0.1"/><path d="M751.76636,361.19987s5.77919-15.70318,9.73483-10.69968-6.36487,13.22-6.36487,13.22Z" transform="translate(-89.41263 -50.62418)" fill="#a0616a"/><path d="M721.32316,369.39717l3.2904-1.39226s5.9738,6.26844,8.34617,7.43447,8.85327,3.98828,9.71475,4.452,10.61608-16.79412,8.28334-19.27219c0,0,4.36623,1.57412,6.3541.97756,0,0-4.96232,24.05872-5.71743,27.319s-2.5177,3.64477-5.80439,3.76435-23.246-5.73631-23.246-5.73631Z" transform="translate(-89.41263 -50.62418)" fill="#575a89"/><path d="M772.09251,485.97548s1.01686,3.26254.56363,3.78522-1.78,9.44478,3.67121,8.86068,8.07265-2.34,9.45281-2.24206,21.86187-7.04855,20.845-10.31109-11.25771.31071-11.25771.31071-11.63346-2.21277-14.36529-4.76475S772.09251,485.97548,772.09251,485.97548Z" transform="translate(-89.41263 -50.62418)" fill="#2f2e41"/><path d="M772.09251,485.97548s1.01686,3.26254.56363,3.78522-1.78,9.44478,3.67121,8.86068,8.07265-2.34,9.45281-2.24206,21.86187-7.04855,20.845-10.31109-11.25771.31071-11.25771.31071-11.63346-2.21277-14.36529-4.76475S772.09251,485.97548,772.09251,485.97548Z" transform="translate(-89.41263 -50.62418)" opacity="0.1"/><path d="M761.64968,490.77624s3.288,14.326,5.70005,14.18,19.43981-8.43286,21.53493-10.07418c2.69013-2.10746,2.58376-5.8315-.50408-5.04929s-11.82153.08062-13.306-1.49633l-3.8172-4.055Z" transform="translate(-89.41263 -50.62418)" fill="#2f2e41"/><path d="M727.94024,411.18278c-.90111.84827-28.30583,24.09633-28.30583,24.09633s2.24327,15.02925,18.58426,17.49275,25.7746-.61277,25.7746-.61277,3.79213,19.37531,9.50471,25.89518,2.86324,6.65266,4.95748,9.78014-1.20566,3.6844,2.27989,4.22744,11.03933-3.16846,11.35709-6.44194a7.67014,7.67014,0,0,0-2.43911-6.20211c-.84826-.90111-2.57189-9.05145-3.83108-10.84047s-5.01168-22.47636-5.01168-22.47636-4.50692-10.20427-11.69009-11.51564-14.98192-5.42014-14.98192-5.42014" transform="translate(-89.41263 -50.62418)" fill="#2f2e41"/><circle cx="613.30152" cy="297.1991" r="12.99442" fill="#a0616a"/><path d="M695.90294,355.93465s1.94891,7.93828-1.01935,12.00718,19.853,2.13185,19.853,2.13185-6.177-12.88119-3.89782-15.87654S695.90294,355.93465,695.90294,355.93465Z" transform="translate(-89.41263 -50.62418)" fill="#a0616a"/><path d="M725.07363,368.41611c2.75686,2.92862,1.81746,19.53453,1.81746,19.53453l-1.76124,14.8301s2.10746,2.69013,1.41841,3.76368-1.81544,2.13388.35807,2.63728,7.18317,1.31136,5.57979,3.67052a22.74341,22.74341,0,0,1-1.67961,1.91252c-.511.54054-1.11868,1.16781-1.80741,1.86713-1.6119,1.62785-3.66193,3.62988-5.93633,5.74115q-.96628.90323-1.98111,1.82244c-8.67685,7.8493-19.46656,16.15785-21.699,12.17041-3.73793-6.67909-6.33558-7.633-6.16382-13.31854s-4.6404-20.27642-4.6404-20.27642-5.595-24.90158,2.28973-32.32392l1.23272-1.972a5.15087,5.15087,0,0,1,5.57353-2.28078c3.84845.91951,9.74809,2.18989,12.30414,1.98477,3.94932-.31844,3.08351-1.94237,3.08351-1.94237S722.31676,365.48749,725.07363,368.41611Z" transform="translate(-89.41263 -50.62418)" fill="#575a89"/><path d="M737.258,421.53239s16.07608,3.9876,13.7176,9.607-16.27494-4.65023-16.27494-4.65023Z" transform="translate(-89.41263 -50.62418)" fill="#a0616a"/><path d="M695.52259,352.57732c.32-.38765.00352-.95395-.27506-1.37236-1.49186-2.2406-1.77675-5.42883-.13539-7.56235a7.2,7.2,0,0,1,2.37336-1.89884,11.49531,11.49531,0,0,1,4.142-1.27131,6.41234,6.41234,0,0,0,2.25061-.44333c.4532-.23,2.59157-.97883,3.05055-1.197,1.00911-.47968,2.413-.27238,3.05945-1.18367.6185-.87183.04093-2.066-.56-2.95008-1.369-2.01406-4.83072-3.68329-7.20791-4.21194a8.493,8.493,0,0,0-5.35836.95059,32.71342,32.71342,0,0,0-5.45809,3.41473,20.41967,20.41967,0,0,0-6.04692,6.20174c-1.40451,2.54912-1.743,5.86924-.15631,8.30915.33052.50825.73469.96705,1.04416,1.48839.755,1.2718.89118,2.80993,1.42459,4.18939a7.75421,7.75421,0,0,0,4.481,4.415c1.62518.60088,3.624.76688,4.58411,2.20924l.448-3.00729a1.734,1.734,0,0,0-.81083-2.024l-2.30184-1.93888a2.63033,2.63033,0,0,1-.99511-1.283C692.5768,351.3344,694.98906,353.22366,695.52259,352.57732Z" transform="translate(-89.41263 -50.62418)" fill="#2f2e41"/><path d="M718.57035,409.80536l10.42875,6.82651c-2.068,2.09124-4.86158,4.79742-7.91744,7.56359-2.8946-1.55824-5.84656-3.2452-8.48746-4.94026-9.66191-6.20143-17.9464-21.77275-21.6579-29.32652s-.6904-13.37206-.6904-13.37206a28.21505,28.21505,0,0,1,7.72621-2.17419C702.80933,373.65307,718.57035,409.80536,718.57035,409.80536Z" transform="translate(-89.41263 -50.62418)" opacity="0.1"/><path d="M719.94844,407.65827l10.85807,7.10647c-.511.54054-1.11868,1.16781-1.80741,1.86713-1.6119,1.62785-3.66193,3.62988-5.93633,5.74115-3.08445-1.6472-6.26709-3.4527-9.09048-5.26491-9.6619-6.20143-17.94639-21.77275-21.65789-29.32652s6.27477-4.84451,6.27477-4.84451-5.18209-2.34527-.34486-3.07463S719.94844,407.65827,719.94844,407.65827Z" transform="translate(-89.41263 -50.62418)" opacity="0.1"/><path d="M690.72288,375.25779s-3.0211,5.81829.6904,13.37206,11.996,23.1251,21.6579,29.32653,23.4852,12.3097,23.4852,12.3097,1.31136-7.18317,3.52451-7.9918l-21.03356-13.76774s-15.761-36.1523-20.59824-35.42294A28.21505,28.21505,0,0,0,690.72288,375.25779Z" transform="translate(-89.41263 -50.62418)" fill="#575a89"/><path d="M687.21266,523.57662a42.57541,42.57541,0,1,1,42.57542-42.57541A42.62376,42.62376,0,0,1,687.21266,523.57662Zm0-84.22527a41.64986,41.64986,0,1,0,41.64987,41.64986A41.69715,41.69715,0,0,0,687.21266,439.35135Z" transform="translate(-89.41263 -50.62418)" fill="#3f3d56"/><path d="M687.21266,488.8684a7.8672,7.8672,0,1,1,7.8672-7.86719A7.876,7.876,0,0,1,687.21266,488.8684Zm0-14.80883a6.94164,6.94164,0,1,0,6.94165,6.94164A6.94937,6.94937,0,0,0,687.21266,474.05957Z" transform="translate(-89.41263 -50.62418)" fill="#3f3d56"/><polygon points="596.874 388.264 595.949 388.264 595.949 340.598 571.885 340.598 571.885 339.673 596.874 339.673 596.874 388.264" fill="#3f3d56"/><rect x="631.33482" y="403.53601" width="20.61004" height="0.92555" fill="#3f3d56"/><rect x="595.48616" y="371.60445" width="47.20318" height="0.92555" fill="#3f3d56"/><polygon points="676.242 458.291 651.524 404.191 652.366 403.806 676.702 457.07 698.958 447.078 699.338 447.922 676.242 458.291" fill="#3f3d56"/><ellipse cx="574.19845" cy="340.13567" rx="12.95773" ry="1.8511" fill="#3f3d56"/><path d="M298.36821,720.16113q24.26891-3.16558,46.668-5.3819l-5.74411-9.63063c1.99618-.55573,10.64146,5.0189,10.64146,5.0189l-7.3012-27.85136c9.97854,1.11993,14.61828,29.52661,14.61828,29.52661l11.31553-9.46109-5.57381,10.71609c45.69481-3.99154,85.12381-5.22194,118.26731-4.91416l-4.91639-8.24281c1.99618-.55573,10.64146,5.0189,10.64146,5.0189l-7.3012-27.85136c9.97854,1.11993,14.61828,29.52661,14.61828,29.52661l11.31553-9.46109-5.90355,11.35009c27.77736.77366,50.41056,2.61283,67.871,4.6169-4.903-12.81022-22.04495-25.13227-22.04495-25.13227,13.18416,3.44229,20.04087,9.04146,23.58844,14.22993a190.257,190.257,0,0,0-14.23616-77.4368S581.473,674.94228,577.461,708.35617l-.51007,5.93559c23.14955,3.03753,34.7648,6.05936,34.7648,6.05936Z" transform="translate(-89.41263 -50.62418)" fill="#3f3d56"/><path d="M455.18467,739.29932l-1.67214,19.22959-7.52462,1.67214-1.67214-5.01642s2.92624-13.79514,2.92624-16.30334Z" transform="translate(-89.41263 -50.62418)" fill="#a0616a"/><path d="M434.28294,725.92222s3.34428,8.36069,4.59838,9.19676-3.76231,11.705-3.76231,11.705l-7.52462-1.2541s2.5082-8.77873.418-13.79514Z" transform="translate(-89.41263 -50.62418)" fill="#a0616a"/><path d="M436.58213,730.72961s3.13526,1.04509,4.38936,5.64347a45.96375,45.96375,0,0,1,1.25411,5.01641l-2.09018,4.59838h-1.2541s-2.09017,7.10659-1.67214,9.6148-2.92624,12.123-8.77872,11.705-4.59838-7.52462-4.59838-7.52462l2.92624-14.63121s0-3.76231.83607-3.76231,7.52462,1.25411,7.52462,1.25411v1.2541S439.92641,737.41817,436.58213,730.72961Z" transform="translate(-89.41263 -50.62418)" fill="#2f2e41"/><path d="M447.242,756.43874v-2.50821s8.77873,1.2541,8.77873,2.50821V759.365s7.52462,15.88531-.83607,15.88531-10.03283-3.34428-10.03283-3.34428v-4.59838s-4.18035-2.09017-4.18035-3.34427,4.07935-12.3324,4.07935-12.3324S445.15184,758.11088,447.242,756.43874Z" transform="translate(-89.41263 -50.62418)" fill="#2f2e41"/><circle cx="367.86221" cy="485.51036" r="13.37711" fill="#a0616a"/><path d="M462.50027,546.37638s-1.67214,7.94266-1.67214,8.77873-7.94265,4.59838-7.94265,4.59838l-7.10659-1.25411-2.50821-7.52462s4.18035-6.27052,4.18035-8.77872Z" transform="translate(-89.41263 -50.62418)" fill="#a0616a"/><path d="M461.3811,551.88724s-4.31528,7.03018-10.5858,4.94a8.64772,8.64772,0,0,1-6.13394-8.08386l-20.62027,7.24779,3.76231,30.51652-3.34427,35.53293,2.50821,4.59838h36.787s1.2541-6.27051,1.67213-6.27051,1.25411-1.25411.83607-1.67214-1.2541-.83607-.83607-2.09018.83607-15.04924.83607-15.04924l12.541-36.369Z" transform="translate(-89.41263 -50.62418)" fill="#3f3d56"/><path d="M477.3405,631.44641l-7.52462,10.03283s-1.25411-10.45086-2.92625-10.8689L471.07,627.6841Z" transform="translate(-89.41263 -50.62418)" fill="#a0616a"/><path d="M393.73359,623.50375s-11.28693,7.10659-10.03283,11.705,14.21318-7.94265,14.21318-8.36069S393.73359,623.50375,393.73359,623.50375Z" transform="translate(-89.41263 -50.62418)" fill="#a0616a"/><path d="M463.96339,623.50375h.83607l1.2541,5.85249a13.96759,13.96759,0,0,1,3.34428,15.04924l-6.68855,43.89363-.83607,51.00021-7.52462,2.09017-8.36069-1.67213-2.09018-68.13963s-2.92624-6.27052-1.67213-8.36069-.418-1.67214-.418-1.67214l-8.77872,24.246s2.92624,7.94266,0,10.45086c0,0,.418,1.25411,0,1.67214s-2.50821,2.09017-1.67214,2.92624,1.2541,0,1.2541,1.25411,4.18035,11.705,2.50821,25.08207l-5.43445,8.36069-5.01641-2.92624-9.19676-25.91814s2.09017-3.76231,0-4.59838-2.50821-1.67214-1.67214-2.92624.83607-5.43445-.418-7.52463,0-5.43445,0-5.43445l4.59838-42.22148s-2.09017-11.28694,5.01642-17.13942l1.2541-4.59838S434.701,629.77427,463.96339,623.50375Z" transform="translate(-89.41263 -50.62418)" fill="#2f2e41"/><path d="M468.87543,525.35705s-4.24718-9.20223-12.38761-7.07864-12.74155,5.309-13.09548,8.49437a45.44748,45.44748,0,0,0,.177,7.96346s.88483-6.54774,6.54774-5.132,14.5112.35393,14.5112.35393l1.41572,12.74155s1.5927-2.30056,3.36236-.88483S474.53834,528.1885,468.87543,525.35705Z" transform="translate(-89.41263 -50.62418)" fill="#2f2e41"/><path d="M472.5331,565.18794h6.27052A16.99107,16.99107,0,0,1,483.82,578.565l2.92624,24.664s0,12.123-5.01641,20.90173l-5.43445,10.45086s-2.09017-5.85248-8.36069-5.01641l3.34428-8.77873v-2.09017a9.13773,9.13773,0,0,0,1.2541-2.09018c0-.418-1.67214-.418-.418-1.2541s2.5082-9.19676,2.5082-9.19676a7.06249,7.06249,0,0,0-.83607-2.09017c-.418-.418.418-1.67214.418-1.67214l-.83607-1.2541-5.43445-20.4837Z" transform="translate(-89.41263 -50.62418)" fill="#3f3d56"/><path d="M431.14768,554.73707l-7.10659,1.25411a27.347,27.347,0,0,0-5.85248,9.19676l-3.34428,15.04924-5.43444,10.8689s-6.27052,6.27052-10.8689,20.48369l-6.68856,12.541,7.10659,4.18034s19.64763-22.9919,22.15583-30.93455l10.8689-20.90173Z" transform="translate(-89.41263 -50.62418)" fill="#3f3d56"/><path d="M491.97222,119.71861A14.59459,14.59459,0,1,1,506.56681,105.124,14.61131,14.61131,0,0,1,491.97222,119.71861Zm0-26.75674A12.16216,12.16216,0,1,0,504.13438,105.124,12.17571,12.17571,0,0,0,491.97222,92.96187Z" transform="translate(-89.41263 -50.62418)" fill="#3f3d56"/><path d="M608.51929,268.44946H584.5098V244.44h24.00949Zm-22.16261-1.84688h20.31573V246.28685H586.35668Z" transform="translate(-89.41263 -50.62418)" fill="#3f3d56"/><path d="M105.78908,483.817,89.41263,466.25948,106.97017,449.883l16.37646,17.55754ZM92.02294,466.35034l13.857,14.85638,14.85638-13.857-13.857-14.85639Z" transform="translate(-89.41263 -50.62418)" fill="#3f3d56"/><path d="M390.53908,620.35907l1.74321,2.29356a.10072.10072,0,0,1-.01919.14075l-.05692.04325,9.081,11.948a1.566,1.566,0,0,1-.29915,2.19416l-7.4656,5.67417a1.56557,1.56557,0,0,1-2.19381-.29941l-8.76247-11.52892-.0412.03132a.071.071,0,0,1-.09931-.01323l-.99209-1.30531a.071.071,0,0,1,.01357-.09957l.04121-.03132-.3737-.49168-.04155.03159a.07442.07442,0,0,1-.10414-.01451l-.97856-1.28751a.07432.07432,0,0,1,.01416-.10387l.04156-.03159-.51012-.67117-.04225.03212a.06569.06569,0,0,1-.09219-.01257l-.534-.70259a.06608.06608,0,0,1,.01231-.09254l.04225-.03212-1.08127-1.42265a1.56548,1.56548,0,0,1,.29906-2.19355l7.4656-5.67417a1.56586,1.56586,0,0,1,2.1939.2988l2.54208,3.34466.05692-.04326A.1007.1007,0,0,1,390.53908,620.35907Z" transform="translate(-89.41263 -50.62418)" fill="#3f3d56"/><rect x="381.34559" y="620.36753" width="1.74672" height="0.35468" rx="0.14581" transform="matrix(0.79615, -0.6051, 0.6051, 0.79615, -386.99027, 307.15872)" fill="#e6e8ec"/><circle cx="293.87208" cy="569.11067" r="0.20118" fill="#e6e8ec"/><path d="M387.38977,617.73875l13.379,17.60295a.9904.9904,0,0,1,.17933.81294.99314.99314,0,0,1-.36939.5788l-7.14643,5.43159a.99062.99062,0,0,1-.433.18857.92839.92839,0,0,1-.11132.013.99427.99427,0,0,1-.84756-.391l-13.379-17.60295a.99343.99343,0,0,1,.18979-1.3921l1.06961-.81294.1043.13723a.818.818,0,0,0,1.14625.15628l3.6345-2.76238a.818.818,0,0,0,.15628-1.14624l-.10431-.13724,1.1398-.86629A.99314.99314,0,0,1,387.38977,617.73875Z" transform="translate(-89.41263 -50.62418)" fill="#fcd285"/><path d="M944.50771,319.36966v15.197s1.21576,17.02065,7.90245,25.531c0,0,10.94185,15.50095,12.46155,12.15761l-1.87166-11.00712-6.33473-6.01354L953.322,336.39032l-.91182-17.02066Z" transform="translate(-89.41263 -50.62418)" fill="#ffb8b8"/><polygon points="922.266 406.126 922.266 417.372 913.148 420.716 913.148 407.646 922.266 406.126" fill="#ffb8b8"/><polygon points="903.726 404.911 909.804 418.588 901.294 422.235 899.47 408.862 903.726 404.911" fill="#ffb8b8"/><path d="M1008.33516,350.67551s12.15761,109.72242,7.59851,110.02636-13.37337,6.07881-13.37337,2.12759-6.99063-55.31713-6.99063-55.31713l-6.68668-26.4428v36.47283l6.99062,41.33587s-6.68668,8.81427-11.54973,3.64729l-10.334-40.42406s-13.67731-61.39592-13.06943-66.259C960.92048,355.84249,992.22633,329.09575,1008.33516,350.67551Z" transform="translate(-89.41263 -50.62418)" fill="#2f2e41"/><path d="M1005.90364,468.60432s2.43152-5.167,7.90245-1.82364l4.5591,5.47092s11.75417,9.7343,3.41356,11.81946c-8.59673,2.14918-13.74753-.13724-13.74753-.13724a6.646,6.646,0,0,0-2.73546-.91182c-1.21576,0-3.95122-2.12758-3.95122-2.73546s.91182-11.37828.91182-11.37828a1.9166,1.9166,0,0,1,2.12758.30394C1005.29576,470.124,1005.90364,468.60432,1005.90364,468.60432Z" transform="translate(-89.41263 -50.62418)" fill="#2f2e41"/><path d="M987.97117,466.78068s5.77486-4.5591,8.51032.60788c0,0,1.72233.60788,1.925,0s1.72232-.91182,1.72232,2.43152,1.65046,11.68222.13076,11.98616-3.0394,1.21576-2.73546,2.43152-1.65046,1.38721-8.64108,1.08327-7.29457-3.0394-7.29457-3.0394,0-3.95122,1.82364-6.0788S987.97117,466.78068,987.97117,466.78068Z" transform="translate(-89.41263 -50.62418)" fill="#2f2e41"/><path d="M976.72538,267.69982s-1.5197,11.24579,8.20638,15.197S963.352,299.91749,960.3126,292.319s.60788-10.03.60788-10.03,3.03941-3.03941.30394-11.24579Z" transform="translate(-89.41263 -50.62418)" fill="#ffb8b8"/><circle cx="877.58666" cy="211.60472" r="13.37337" fill="#ffb8b8"/><path d="M982.50024,286.54412s-9.11821,4.863-17.93247,1.21576-8.51033,12.15761-8.51033,12.15761l4.5591,11.85367,31.60979-3.0394-2.12758-18.23642Z" transform="translate(-89.41263 -50.62418)" fill="#f2f2f2"/><path d="M977.97,276.14424a11.03376,11.03376,0,0,1,7.56961,5.84078l14.58913,4.5591,3.64729,5.167-4.25517,37.38465s7.90245,7.59851,7.90245,11.85367,9.72609,18.8443,4.863,17.02065-13.67731-8.20638-13.67731-8.20638-22.18763.91182-29.17826,6.99062-9.72609,4.25517-9.72609,4.25517-7.29456-31.60979-7.5985-36.47283-8.81427-34.04131-8.81427-34.04131l15.197-8.51032,3.87077-4.39191,10.71836,17.15739,9.72609-11.85366S977.99891,279.11772,977.97,276.14424Z" transform="translate(-89.41263 -50.62418)" fill="#d0cde1"/><path d="M1008.33516,315.1145l1.82364,9.72609s8.20639,30.394,6.99063,40.728c0,0,.91182,23.09946-4.25517,20.364s-2.43152-19.45218-2.43152-19.45218l-7.29456-30.09008L999.217,318.76178Z" transform="translate(-89.41263 -50.62418)" fill="#ffb8b8"/><path d="M1000.73666,289.88746l3.0394,1.82364s11.54973,24.01128,8.81426,25.83492-14.58913,5.77487-14.58913,5.77487Z" transform="translate(-89.41263 -50.62418)" fill="#d0cde1"/><polygon points="861.174 239.871 854.031 239.719 852.36 242.607 854.487 272.089 865.429 274.52 861.174 239.871" fill="#d0cde1"/><path d="M977.88943,250.91849l2.41049-.87654s-5.04008-5.04008-12.05243-4.60179l1.97227-1.97223s-4.821-1.75305-9.20365,2.84874a39.15117,39.15117,0,0,0-6.63127,8.46569h-2.58146l1.07741,2.15482-3.77092,2.15481,3.87048-.38706a10.87333,10.87333,0,0,0,.36608,5.58072l.87651,2.41045s3.50617-7.01228,3.50617-7.88882v2.19134s2.41049-1.9722,2.41049-3.287l1.31479,1.53394.6574-2.41049,8.108,2.41049-1.3148-1.9722,5.04008.6574-1.97226-2.41048s5.69748,2.84873,5.91665,5.25922a20.33457,20.33457,0,0,0,1.72338,5.55258l1.82364-2.12758S984.24431,254.20549,977.88943,250.91849Z" transform="translate(-89.41263 -50.62418)" fill="#2f2e41"/><ellipse cx="888.83245" cy="211.75669" rx="1.06379" ry="2.73546" fill="#ffb8b8"/><path d="M1048.14533,425.02675c-15.7779,10.98526-20.79866,31.05011-20.79866,31.05011s20.56028,2.25423,36.33818-8.731,20.79866-31.05012,20.79866-31.05012S1063.92323,414.04148,1048.14533,425.02675Z" transform="translate(-89.41263 -50.62418)" fill="#3f3d56"/><path d="M1054.38806,430.62652c-7.9786,17.49171-26.81824,26.02837-26.81824,26.02837s-5.90376-19.823,2.07485-37.31473,26.81824-26.02837,26.81824-26.02837S1062.36667,413.1348,1054.38806,430.62652Z" transform="translate(-89.41263 -50.62418)" fill="#fcd285"/><circle cx="284.68109" cy="546.08084" r="3.64865" fill="#f2f2f2"/><circle cx="268.87029" cy="518.10788" r="12.16216" fill="#f2f2f2"/><circle cx="246.97841" cy="462.16196" r="23.1081" fill="#fcd285"/><path d="M277.56169,180.0068a83.93931,83.93931,0,0,0-70.05428,95.83331c7.11867,45.80855,113.55638,184.102,113.55638,184.102s59.44988-164.07247,52.33121-209.881A83.93932,83.93932,0,0,0,277.56169,180.0068Zm19.6565,126.48929A44.06816,44.06816,0,1,1,333.9967,256.1836,44.0682,44.0682,0,0,1,297.21819,306.49609Z" transform="translate(-89.41263 -50.62418)" fill="#fcd285"/></svg>