<svg id="Layer_1" data-name="Layer 1" xmlns="http://www.w3.org/2000/svg" viewBox="0 0 175.91 175.91"><title>combine_icon</title><path d="M92.2,122.7h-58A30.54,30.54,0,0,1,3.7,92.2v-58A30.54,30.54,0,0,1,34.2,3.7h58a30.54,30.54,0,0,1,30.5,30.5v58A30.53,30.53,0,0,1,92.2,122.7Zm-58-99A10.51,10.51,0,0,0,23.7,34.2v58a10.51,10.51,0,0,0,10.5,10.5h58a10.51,10.51,0,0,0,10.5-10.5v-58A10.51,10.51,0,0,0,92.2,23.7Z"/><path d="M141.7,172.2h-58a30.54,30.54,0,0,1-30.5-30.5v-58A30.54,30.54,0,0,1,83.7,53.2h58a30.54,30.54,0,0,1,30.5,30.5v58A30.53,30.53,0,0,1,141.7,172.2Zm-58-99A10.51,10.51,0,0,0,73.2,83.7v58a10.51,10.51,0,0,0,10.5,10.5h58a10.51,10.51,0,0,0,10.5-10.5v-58a10.51,10.51,0,0,0-10.5-10.5Z"/></svg>