<svg id="Layer_2" data-name="Layer 2" xmlns="http://www.w3.org/2000/svg" viewBox="0 0 100 100"><path d="M93.25,27.15a3.72,3.72,0,0,0-.08-.57,1.36,1.36,0,0,0,0-.17,2.56,2.56,0,0,0-.27-.64v0a.18.18,0,0,0,0-.07,3.33,3.33,0,0,0-.39-.5L92.26,25a2.61,2.61,0,0,0-.46-.34l-.09-.07L51.44,2.53a3,3,0,0,0-2.88,0L8.29,24.63l-.09.07a2.61,2.61,0,0,0-.46.34l-.15.14a3.33,3.33,0,0,0-.39.5.18.18,0,0,0,0,.07v0a2.56,2.56,0,0,0-.27.64,1.36,1.36,0,0,0,0,.17,3.72,3.72,0,0,0-.08.57s0,.07,0,.11v45.8A3,3,0,0,0,8.3,75.69L48.56,97.75l.1,0a2.53,2.53,0,0,0,.48.19l.18.06a3,3,0,0,0,.68.08,2.61,2.61,0,0,0,.69-.09l.18,0a2.55,2.55,0,0,0,.48-.2l.11,0L91.72,75.32a3,3,0,0,0,1.54-2.62V27.26S93.25,27.19,93.25,27.15ZM50,8.58,84.14,27.32,50,47,15.86,27.32ZM12.74,32.45,47,52.16v37.9L12.74,71.28ZM53,90V52.16L87.26,32.45V70.93Z"/></svg>