<svg id="Layer_2" data-name="Layer 2" xmlns="http://www.w3.org/2000/svg" viewBox="0 0 100 100"><path d="M62,68.91c5.48-3.48,10-8.84,10-18.91h0v0c0-.57,0-1.12,0-1.66,0-.17,0-.33,0-.49,0-.38-.06-.76-.1-1.12l-.06-.49c0-.41-.12-.8-.19-1.19,0-.09,0-.19,0-.29-.1-.47-.2-.94-.32-1.39,0-.1-.05-.2-.08-.3q-.15-.52-.3-1c0-.13-.09-.26-.13-.39-.11-.31-.23-.63-.36-.93l-.11-.3c-.17-.4-.35-.79-.54-1.16l0,0c-.18-.36-.37-.71-.58-1L69,37.91c-.17-.27-.34-.54-.52-.8l-.15-.23A21.26,21.26,0,0,0,66.81,35l-.09-.1L66,34.16,65.84,34c-.27-.26-.54-.51-.82-.75l0,0a22.66,22.66,0,0,0-1.91-1.48l-.06,0-1-.65h0a57.5,57.5,0,0,0-9.33-4.47C45.1,23.54,38.8,21,36.69,12.49H63.3a17.42,17.42,0,0,1-1.5,4H41.14a16,16,0,0,0,6.09,5H57.49a26.94,26.94,0,0,1-4.35,2.61l.51.2a69.25,69.25,0,0,1,8.29,3.82C67.61,24,72.06,17.48,72.06,5.53a4,4,0,0,0-8,0c0,.68,0,1.33,0,2H36c0-.63-.05-1.28-.05-2a4,4,0,1,0-8,0C27.94,25.22,40,30.11,49.71,34c1.26.51,2.44,1,3.55,1.49s2.25,1,3.25,1.58l.36.2.67.4L58,38l.58.4.45.32.52.4.42.37c.16.14.31.27.46.42l.41.43c.13.14.26.27.38.41s.41.52.61.8.19.3.28.45.27.42.39.64.15.31.22.46.2.43.29.65.13.34.19.51.16.47.22.71.1.36.15.54.12.54.17.81.07.37.1.56.05.41.07.62H36.09a14.19,14.19,0,0,1,1-4h23c-1.25-2.13-3.34-3.57-6.36-5H41.28a30.58,30.58,0,0,1,5.47-3A53,53,0,0,1,38,31.09c-5.48,3.48-10,8.84-10,18.91h0v.19c0,.48,0,1,0,1.43,0,.23,0,.46.05.68s.05.57.08.85.05.5.09.75.07.47.11.7c.08.51.18,1,.29,1.47,0,.15.06.31.1.46s.14.52.22.77.09.34.14.5.17.49.25.74.12.3.17.45l.29.72.15.32c.2.44.41.86.63,1.27l.22.41.36.57.27.43.36.52c.11.16.23.31.34.46l.48.6c.17.21.35.42.53.62l.34.36.46.47.33.32.56.51.26.23c.28.24.57.47.86.7l.13.09c.26.2.53.39.8.58l.21.15.8.53.09.06h0a57.5,57.5,0,0,0,9.33,4.47c7.29,3,13.39,5.43,15.73,13.11H37a16.35,16.35,0,0,1,1.23-3H58.84a15.91,15.91,0,0,0-6.13-5H42.55a26.19,26.19,0,0,1,4.31-2.59l-.51-.2a69.25,69.25,0,0,1-8.29-3.82C32.39,76,27.94,82.52,27.94,94.47a4,4,0,1,0,8,0c0-1.06.05-2,.13-3H63.94c.08.93.12,1.92.12,3a4,4,0,0,0,8,0C72.06,74.78,60,69.89,50.29,66c-1.28-.51-2.47-1-3.59-1.51s-2.14-1-3.09-1.5l-.5-.27-.57-.35L42,62l-.49-.34c-.19-.13-.38-.26-.56-.4l-.42-.32L40,60.44l-.32-.3c-.23-.21-.44-.44-.64-.66l-.16-.18a10.63,10.63,0,0,1-1.35-2l-.09-.19a8.92,8.92,0,0,1-.42-.94c0-.09-.07-.19-.11-.28-.11-.31-.21-.64-.31-1,0-.11-.06-.21-.08-.32-.09-.35-.16-.71-.23-1.08l-.06-.32c0-.23,0-.47-.08-.71H63.91a14.64,14.64,0,0,1-1,4h-23c1.25,2.12,3.32,3.56,6.32,5H58.76a30.57,30.57,0,0,1-5.5,3A53.26,53.26,0,0,1,62,68.91Z"/></svg>