<?xml version="1.0"?>
<svg width="24" height="24" xmlns="http://www.w3.org/2000/svg" xmlns:svg="http://www.w3.org/2000/svg">
 <g class="layer">
  <title>Layer 1</title>
  <path d="m11.76,3.8c1.26,0 4.18,7.75 4.18,8.99l1.48,0.46c-0.92,1.05 -3.83,6.24 -5.35,6.24s-2.8,-5.5 -3.72,-6.54l-2.88,-4.52c0,-1.24 5.02,-4.63 6.28,-4.63zm0.39,6.19c-1.04,0 -1.9,-0.84 -1.9,-1.87s0.85,-1.87 1.9,-1.87s1.9,0.84 1.9,1.87s-0.85,1.87 -1.9,1.87zm-0.53,-4.41c0,-3.39 3.71,-1.2 0.53,-1.2s-5.69,2.4 -5.69,5.79c0,2.19 -1.96,-5.79 1.88,-2.34c3.84,-3.46 3.28,-0.07 3.28,-2.26zm0.53,-3.07c3.98,0 7.59,3.01 7.59,7.66c0,3.1 -2.53,6.77 -7.59,11.03c-5.06,-4.25 -7.59,-7.92 -7.59,-11.03c0,-4.65 3.61,-7.66 7.59,-7.66z" fill="#ffffff" id="svg_2"/>
  <path d="m12,11c1.33,0 4,0.67 4,2l0,0.16c-0.97,1.12 -2.4,1.84 -4,1.84s-3.03,-0.72 -4,-1.84l0,-0.16c0,-1.33 2.67,-2 4,-2zm0,-1c-1.1,0 -2,-0.9 -2,-2s0.9,-2 2,-2s2,0.9 2,2s-0.9,2 -2,2zm6,0.2c0,-3.63 -2.65,-6.2 -6,-6.2s-6,2.57 -6,6.2c0,2.34 1.95,5.44 6,9.14c4.05,-3.7 6,-6.8 6,-9.14zm-6,-8.2c4.2,0 8,3.22 8,8.2c0,3.32 -2.67,7.25 -8,11.8c-5.33,-4.55 -8,-8.48 -8,-11.8c0,-4.98 3.8,-8.2 8,-8.2z" fill= "#000000" id="svg_1" transform="matrix(1 0 0 1 0 0)"/>
  <path id="svg_4"/>
 </g>
</svg>